#N canvas 0 23 1440 851 12;
#X declare -lib mrpeach;
#X obj 499 509 readsf~;
#X obj 545 539 bng 15 250 50 0 empty empty empty 0 -6 0 8 -262144 -1
-1;
#X msg 590 587 1;
#X obj 590 554 t b b;
#X obj 577 391 bng 15 250 50 0 empty empty empty 0 -6 0 8 -262144 -1
-1;
#X obj 628 355 bng 15 250 50 0 empty empty empty 17 7 0 10 -262144
-1 -1;
#X msg 612 476 0;
#X obj 380 69 import mrpeach;
#X obj -19 522 readsf~;
#X obj 51 527 bng 15 250 50 0 empty empty empty 0 -6 0 8 -262144 -1
-1;
#X msg 97 575 1;
#X obj 82 532 t b b;
#X obj 96 401 bng 15 250 50 0 empty empty empty 0 -6 0 8 -262144 -1
-1;
#X obj 168 390 bng 15 250 50 0 empty 1 empty 17 7 0 10 -262144 -1 -1
;
#X msg 156 435 0;
#X obj 244 498 readsf~;
#X obj 303 520 bng 15 250 50 0 empty empty empty 0 -6 0 8 -262144 -1
-1;
#X msg 318 577 1;
#X obj 335 543 t b b;
#X obj 331 379 bng 15 250 50 0 empty empty empty 0 -6 0 8 -262144 -1
-1;
#X obj 397 358 bng 15 250 50 0 empty empty empty 17 7 0 10 -262144
-1 -1;
#X msg 374 465 0;
#X obj 804 504 readsf~;
#X obj 851 539 bng 15 250 50 0 empty empty empty 0 -6 0 8 -262144 -1
-1;
#X msg 896 587 1;
#X obj 896 554 t b b;
#X obj 889 417 bng 15 250 50 0 empty empty empty 0 -6 0 8 -262144 -1
-1;
#X obj 944 363 bng 15 250 50 0 empty empty empty 17 7 0 10 -262144
-1 -1;
#X msg 905 475 0;
#X text 934 345 stop;
#X obj 501 69 udpreceive 9002;
#X obj 514 118 unpackOSC;
#X obj 289 217 == 1;
#X obj 423 210 == 2;
#X obj 518 209 == 3;
#X obj 660 207 == 4;
#X obj 517 157 routeOSC /oscICreate;
#X obj 7 988 readsf~;
#X obj 68 1019 bng 15 250 50 0 empty empty empty 0 -6 0 8 -262144 -1
-1;
#X msg 98 1066 1;
#X obj 98 1033 t b b;
#X obj 201 990 readsf~;
#X obj 247 1020 bng 15 250 50 0 empty empty empty 0 -6 0 8 -262144
-1 -1;
#X msg 292 1068 1;
#X obj 292 1035 t b b;
#X obj 388 1004 readsf~;
#X obj 434 1034 bng 15 250 50 0 empty empty empty 0 -6 0 8 -262144
-1 -1;
#X msg 479 1082 1;
#X obj 479 1049 t b b;
#X obj 179 657 *~;
#X obj 217 577 line~;
#X obj 330 640 *~;
#X obj 437 567 line~;
#X obj 672 618 *~;
#X obj 688 559 line~;
#X obj 958 609 *~;
#X obj 974 555 line~;
#X obj 97 850 loadbang;
#X obj 172 267 select 1;
#X obj 349 280 select 1;
#X obj 529 255 select 1;
#X obj 801 256 select 1;
#X obj 1185 260 t b b;
#X obj 1249 332 delay;
#X obj 1353 726 dac~ 1 2 3 4 5 6;
#X obj 1266 524 readsf~;
#X obj 1213 437 t b b;
#X msg 1222 490 1;
#X msg 1357 549 0;
#X obj 1379 403 % 4;
#X obj 1422 451 select 0 1 2 3;
#X msg 1426 548 0;
#X msg 1487 547 0;
#X msg 1550 548 0;
#X obj 1326 633 *~;
#X obj 1383 634 *~;
#X obj 1444 637 *~;
#X obj 1508 637 *~;
#X obj 1275 248 random 30000;
#X obj 1280 286 + 25000;
#X obj 1163 206 loadbang;
#X obj 259 1280 dac~ 1 2 3 4 5 6;
#X obj 419 770 dac~ 1 2 3 4 5 6;
#X obj 1371 500 t b b;
#X obj 1435 499 t b b;
#X obj 1497 500 t b b;
#X obj 1560 499 t b b;
#X obj 648 1018 readsf~;
#X obj 709 1049 bng 15 250 50 0 empty empty empty 0 -6 0 8 -262144
-1 -1;
#X msg 739 1096 1;
#X obj 739 1063 t b b;
#X obj 842 1020 readsf~;
#X obj 888 1050 bng 15 250 50 0 empty empty empty 0 -6 0 8 -262144
-1 -1;
#X msg 933 1098 1;
#X obj 933 1065 t b b;
#X obj 1029 1034 readsf~;
#X obj 1075 1064 bng 15 250 50 0 empty empty empty 0 -6 0 8 -262144
-1 -1;
#X msg 1120 1112 1;
#X obj 1120 1079 t b b;
#X obj 693 1145 *~ 0.3;
#X obj 1064 1146 *~ 0.3;
#X obj 1515 860 loadbang;
#X obj 1399 1372 dac~ 1 2 3 4 5 6;
#X obj 1181 1027 readsf~;
#X obj 1242 1058 bng 15 250 50 0 empty empty empty 0 -6 0 8 -262144
-1 -1;
#X msg 1272 1105 1;
#X obj 1272 1072 t b b;
#X obj 1375 1029 readsf~;
#X obj 1421 1059 bng 15 250 50 0 empty empty empty 0 -6 0 8 -262144
-1 -1;
#X msg 1466 1107 1;
#X obj 1466 1074 t b b;
#X obj 1562 1043 readsf~;
#X obj 1608 1073 bng 15 250 50 0 empty empty empty 0 -6 0 8 -262144
-1 -1;
#X msg 1653 1121 1;
#X obj 1653 1088 t b b;
#X obj 1221 1155 *~ 0.3;
#X obj 1388 1161 *~ 0.3;
#X obj 1772 1038 readsf~;
#X obj 1833 1069 bng 15 250 50 0 empty empty empty 0 -6 0 8 -262144
-1 -1;
#X msg 1863 1116 1;
#X obj 1863 1083 t b b;
#X obj 1942 1042 readsf~;
#X obj 1988 1072 bng 15 250 50 0 empty empty empty 0 -6 0 8 -262144
-1 -1;
#X msg 2033 1120 1;
#X obj 2033 1087 t b b;
#X obj 2129 1056 readsf~;
#X obj 2175 1086 bng 15 250 50 0 empty empty empty 0 -6 0 8 -262144
-1 -1;
#X msg 2220 1134 1;
#X obj 2220 1101 t b b;
#X obj 1812 1166 *~ 0.3;
#X obj 1955 1174 *~ 0.3;
#X text 775 1367 f;
#X obj 1597 1155 *~ 0.1;
#X msg -19 432 open audio/tom.wav;
#X msg 243 431 open audio/bellemare.wav;
#X msg 500 443 open audio/exodeMamie.wav;
#X msg 760 447 open audio/choux.wav;
#X msg 1255 473 open audio/HE.wav;
#X msg 8 920 open audio/feu1.wav;
#X msg 200 916 open audio/feu2.wav;
#X msg 389 936 open audio/feu3.wav;
#X msg 649 950 open audio/exodePapi.wav;
#X msg 841 946 open audio/7730.wav;
#X msg 1029 958 open audio/chinois.wav;
#X msg 1182 959 open audio/bol.wav;
#X msg 1374 955 open audio/flowers.wav;
#X msg 1563 975 open audio/petain.wav;
#X msg 1773 970 open audio/3min.wav;
#X msg 1941 968 open audio/ampoule.wav;
#X msg 2130 988 open audio/pData.wav;
#X obj 855 1152 *~ 0.2;
#X obj 2164 1168 *~ 0.2;
#X obj 47 1116 *~ 0.2;
#X obj 214 1122 *~ 0.2;
#X obj 423 1116 *~ 0.2;
#X msg 1390 550 0.7;
#X msg 1456 548 0.7;
#X msg 1519 548 0.7;
#X msg 1582 547 0.7;
#X obj 525 706 *~ 2;
#X obj 661 709 *~ 1.5;
#X obj 390 709 *~ 1;
#X msg 123 504 5 5000;
#X msg 414 441 4 5000;
#X msg 666 473 5 5000;
#X msg 957 503 5 5000;
#X obj 250 698 *~ 1.7;
#X text 177 74 Receiving the osc message from Processing app;
#X text 9 179 Select which side the camera have seen (or not) and start
it (and stop all the others). If no cam is concerned \, stop all the
tales.;
#X text 352 795 Sound output object with each speakers corresponding
to each inlet.;
#X text 871 397 loop;
#X text 722 708 Small volume adjustments;
#X text 1016 533 Fade In;
#X text 537 378;
#X text 618 337;
#X text 387 340;
#X text 319 363;
#X text 174 361;
#X text 87 385;
#X text 795 421 Story;
#X text -1 821 FIRE BACKGROUND SOUND EFFECT;
#X text 67 10 RECEIVE COMMANDS AND READ THE STORIES;
#X text 1132 151 GENERATE RANDOM "Hé ! Tu m'écoutes ?" SHOUTINGS
;
#X text 1383 257 Generate random delay from 25s to 55s between shouts.
;
#X text 1558 458 Randomly select a chanel;
#X text 1103 843 BACKROUND OF INDISTINCT STORIES;
#X connect 0 0 53 0;
#X connect 0 1 1 0;
#X connect 1 0 3 0;
#X connect 2 0 0 0;
#X connect 3 0 2 0;
#X connect 3 1 135 0;
#X connect 4 0 3 0;
#X connect 4 0 164 0;
#X connect 5 0 6 0;
#X connect 6 0 0 0;
#X connect 6 0 54 0;
#X connect 8 0 49 0;
#X connect 8 1 9 0;
#X connect 9 0 11 0;
#X connect 10 0 8 0;
#X connect 11 0 10 0;
#X connect 11 1 133 0;
#X connect 12 0 11 0;
#X connect 12 0 162 0;
#X connect 13 0 14 0;
#X connect 14 0 8 0;
#X connect 14 0 50 0;
#X connect 15 0 51 0;
#X connect 15 1 16 0;
#X connect 16 0 18 0;
#X connect 17 0 15 0;
#X connect 18 0 17 0;
#X connect 18 1 134 0;
#X connect 19 0 18 0;
#X connect 19 0 163 0;
#X connect 20 0 21 0;
#X connect 21 0 15 0;
#X connect 21 0 52 0;
#X connect 22 0 55 0;
#X connect 22 1 23 0;
#X connect 23 0 25 0;
#X connect 24 0 22 0;
#X connect 25 0 24 0;
#X connect 25 1 136 0;
#X connect 26 0 25 0;
#X connect 26 0 165 0;
#X connect 27 0 28 0;
#X connect 28 0 22 0;
#X connect 28 0 56 0;
#X connect 30 0 31 0;
#X connect 31 0 36 0;
#X connect 32 0 58 0;
#X connect 33 0 59 0;
#X connect 34 0 60 0;
#X connect 35 0 61 0;
#X connect 36 0 32 0;
#X connect 36 0 33 0;
#X connect 36 0 34 0;
#X connect 36 0 35 0;
#X connect 37 0 152 0;
#X connect 37 1 38 0;
#X connect 38 0 40 0;
#X connect 39 0 37 0;
#X connect 40 0 39 0;
#X connect 40 1 138 0;
#X connect 41 0 153 0;
#X connect 41 1 42 0;
#X connect 42 0 44 0;
#X connect 43 0 41 0;
#X connect 44 0 43 0;
#X connect 44 1 139 0;
#X connect 45 0 154 0;
#X connect 45 1 46 0;
#X connect 46 0 48 0;
#X connect 47 0 45 0;
#X connect 48 0 47 0;
#X connect 48 1 140 0;
#X connect 49 0 166 0;
#X connect 50 0 49 1;
#X connect 51 0 161 0;
#X connect 52 0 51 1;
#X connect 53 0 159 0;
#X connect 54 0 53 1;
#X connect 55 0 160 0;
#X connect 56 0 55 1;
#X connect 57 0 40 0;
#X connect 57 0 44 0;
#X connect 57 0 48 0;
#X connect 58 0 12 0;
#X connect 58 1 13 0;
#X connect 59 0 19 0;
#X connect 59 1 20 0;
#X connect 60 0 4 0;
#X connect 60 1 5 0;
#X connect 61 0 26 0;
#X connect 61 1 27 0;
#X connect 62 0 63 0;
#X connect 62 1 78 0;
#X connect 63 0 62 0;
#X connect 63 0 66 0;
#X connect 65 0 74 0;
#X connect 65 0 75 0;
#X connect 65 0 76 0;
#X connect 65 0 77 0;
#X connect 66 0 67 0;
#X connect 66 1 137 0;
#X connect 67 0 65 0;
#X connect 68 0 75 1;
#X connect 68 0 76 1;
#X connect 68 0 77 1;
#X connect 69 0 70 0;
#X connect 70 0 83 0;
#X connect 70 1 84 0;
#X connect 70 2 85 0;
#X connect 70 3 86 0;
#X connect 71 0 74 1;
#X connect 71 0 76 1;
#X connect 71 0 77 1;
#X connect 72 0 74 1;
#X connect 72 0 75 1;
#X connect 72 0 77 1;
#X connect 73 0 74 1;
#X connect 73 0 75 1;
#X connect 73 0 76 1;
#X connect 74 0 64 2;
#X connect 75 0 64 1;
#X connect 75 0 64 5;
#X connect 76 0 64 0;
#X connect 76 0 64 4;
#X connect 77 0 64 4;
#X connect 77 0 64 5;
#X connect 78 0 79 0;
#X connect 79 0 63 1;
#X connect 79 0 69 0;
#X connect 80 0 62 0;
#X connect 83 0 68 0;
#X connect 83 1 155 0;
#X connect 84 0 71 0;
#X connect 84 1 156 0;
#X connect 85 0 72 0;
#X connect 85 1 157 0;
#X connect 86 0 73 0;
#X connect 86 1 158 0;
#X connect 87 0 99 0;
#X connect 87 1 88 0;
#X connect 88 0 90 0;
#X connect 89 0 87 0;
#X connect 90 0 89 0;
#X connect 90 1 141 0;
#X connect 91 0 150 0;
#X connect 91 1 92 0;
#X connect 92 0 94 0;
#X connect 93 0 91 0;
#X connect 94 0 93 0;
#X connect 94 1 142 0;
#X connect 95 0 100 0;
#X connect 95 1 96 0;
#X connect 96 0 98 0;
#X connect 97 0 95 0;
#X connect 98 0 97 0;
#X connect 98 1 143 0;
#X connect 99 0 102 0;
#X connect 100 0 102 2;
#X connect 101 0 90 0;
#X connect 101 0 94 0;
#X connect 101 0 98 0;
#X connect 101 0 106 0;
#X connect 101 0 110 0;
#X connect 101 0 114 0;
#X connect 101 0 120 0;
#X connect 101 0 124 0;
#X connect 101 0 128 0;
#X connect 103 0 115 0;
#X connect 103 1 104 0;
#X connect 104 0 106 0;
#X connect 105 0 103 0;
#X connect 106 0 105 0;
#X connect 106 1 144 0;
#X connect 107 0 116 0;
#X connect 107 1 108 0;
#X connect 108 0 110 0;
#X connect 109 0 107 0;
#X connect 110 0 109 0;
#X connect 110 1 145 0;
#X connect 111 0 132 0;
#X connect 111 1 112 0;
#X connect 112 0 114 0;
#X connect 113 0 111 0;
#X connect 114 0 113 0;
#X connect 114 1 146 0;
#X connect 115 0 102 4;
#X connect 116 0 102 5;
#X connect 117 0 129 0;
#X connect 117 1 118 0;
#X connect 118 0 120 0;
#X connect 119 0 117 0;
#X connect 120 0 119 0;
#X connect 120 1 147 0;
#X connect 121 0 130 0;
#X connect 121 1 122 0;
#X connect 122 0 124 0;
#X connect 123 0 121 0;
#X connect 124 0 123 0;
#X connect 124 1 148 0;
#X connect 125 0 151 0;
#X connect 125 1 126 0;
#X connect 126 0 128 0;
#X connect 127 0 125 0;
#X connect 128 0 127 0;
#X connect 128 1 149 0;
#X connect 129 0 102 1;
#X connect 129 0 102 2;
#X connect 130 0 102 1;
#X connect 130 0 102 5;
#X connect 132 0 102 4;
#X connect 132 0 102 5;
#X connect 133 0 8 0;
#X connect 134 0 15 0;
#X connect 135 0 0 0;
#X connect 136 0 22 0;
#X connect 137 0 65 0;
#X connect 138 0 37 0;
#X connect 139 0 41 0;
#X connect 140 0 45 0;
#X connect 141 0 87 0;
#X connect 142 0 91 0;
#X connect 143 0 95 0;
#X connect 144 0 103 0;
#X connect 145 0 107 0;
#X connect 146 0 111 0;
#X connect 147 0 117 0;
#X connect 148 0 121 0;
#X connect 149 0 125 0;
#X connect 150 0 102 1;
#X connect 151 0 102 0;
#X connect 151 0 102 4;
#X connect 152 0 81 0;
#X connect 152 0 81 1;
#X connect 152 0 81 3;
#X connect 152 0 81 2;
#X connect 153 0 81 3;
#X connect 153 0 81 5;
#X connect 153 0 81 4;
#X connect 154 0 81 3;
#X connect 154 0 81 2;
#X connect 154 0 81 1;
#X connect 154 0 81 5;
#X connect 155 0 74 1;
#X connect 156 0 75 1;
#X connect 157 0 76 1;
#X connect 158 0 77 1;
#X connect 159 0 82 0;
#X connect 160 0 82 4;
#X connect 161 0 82 1;
#X connect 162 0 50 0;
#X connect 163 0 52 0;
#X connect 164 0 54 0;
#X connect 165 0 56 0;
#X connect 166 0 82 5;
