#N canvas 66 27 1440 851 12;
#X declare -lib mrpeach;
#X obj 511 482 readsf~;
#X obj 557 512 bng 15 250 50 0 empty empty empty 0 -6 0 8 -262144 -1
-1;
#X msg 602 560 1;
#X obj 602 527 t b b;
#X obj 589 364 bng 15 250 50 0 empty empty empty 0 -6 0 8 -262144 -1
-1;
#X obj 640 328 bng 15 250 50 0 empty empty empty 17 7 0 10 -262144
-1 -1;
#X msg 624 449 0;
#X text 630 310 stop;
#X obj 365 26 import mrpeach;
#X obj -93 487 readsf~;
#X obj -23 492 bng 15 250 50 0 empty empty empty 0 -6 0 8 -262144 -1
-1;
#X msg 23 540 1;
#X obj 8 497 t b b;
#X obj 22 366 bng 15 250 50 0 empty empty empty 0 -6 0 8 -262144 -1
-1;
#X obj 62 359 bng 15 250 50 0 empty 1 empty 17 7 0 10 -262144 -1 -1
;
#X msg 82 400 0;
#X text 53 337 stop;
#X text 13 350 play;
#X obj 229 470 readsf~;
#X obj 288 492 bng 15 250 50 0 empty empty empty 0 -6 0 8 -262144 -1
-1;
#X msg 303 549 1;
#X obj 320 515 t b b;
#X obj 316 351 bng 15 250 50 0 empty empty empty 0 -6 0 8 -262144 -1
-1;
#X obj 382 330 bng 15 250 50 0 empty empty empty 17 7 0 10 -262144
-1 -1;
#X msg 359 437 0;
#X text 372 312 stop;
#X text 304 335 play;
#X obj 789 476 readsf~;
#X obj 836 511 bng 15 250 50 0 empty empty empty 0 -6 0 8 -262144 -1
-1;
#X msg 881 559 1;
#X obj 881 526 t b b;
#X obj 874 389 bng 15 250 50 0 empty empty empty 0 -6 0 8 -262144 -1
-1;
#X obj 929 335 bng 15 250 50 0 empty empty empty 17 7 0 10 -262144
-1 -1;
#X msg 909 436 0;
#X text 919 317 stop;
#X text 862 373 play;
#X obj 486 26 udpreceive 9002;
#X obj 499 75 unpackOSC;
#X obj 146 208 == 1;
#X obj 364 192 == 2;
#X obj 507 177 == 3;
#X obj 750 193 == 4;
#X obj 502 129 routeOSC /oscICreate;
#X obj -9 908 readsf~;
#X obj 52 939 bng 15 250 50 0 empty empty empty 0 -6 0 8 -262144 -1
-1;
#X msg 82 986 1;
#X obj 82 953 t b b;
#X obj 185 910 readsf~;
#X obj 231 940 bng 15 250 50 0 empty empty empty 0 -6 0 8 -262144 -1
-1;
#X msg 276 988 1;
#X obj 276 955 t b b;
#X obj 372 924 readsf~;
#X obj 418 954 bng 15 250 50 0 empty empty empty 0 -6 0 8 -262144 -1
-1;
#X msg 463 1002 1;
#X obj 463 969 t b b;
#X msg -8 840 open feu1.wav;
#X msg 184 836 open feu2.wav;
#X msg 373 856 open feu3.wav;
#X obj 105 622 *~;
#X obj 143 542 line~;
#X obj 315 612 *~;
#X obj 422 539 line~;
#X msg 399 413 5 10000;
#X obj 684 591 *~;
#X obj 700 532 line~;
#X msg 678 446 5 10000;
#X obj 943 581 *~;
#X obj 959 527 line~;
#X msg 936 401 5 10000;
#X obj 31 1036 *~ 0.3;
#X obj 198 1042 *~ 0.3;
#X obj 407 1036 *~ 0.3;
#X msg 49 469 5 10000;
#X obj 81 770 loadbang;
#X obj 50 258 select 1;
#X obj 334 252 select 1;
#X obj 514 227 select 1;
#X text 549 351 play;
#X obj 786 228 select 1;
#X msg 512 416 open exodeMamie.wav;
#X obj 1195 165 t b b;
#X floatatom 1279 327 5 0 0 0 - - -;
#X obj 1203 310 delay;
#X obj 1338 698 dac~ 1 2 3 4 5 6;
#X obj 1251 496 readsf~;
#X obj 1198 409 t b b;
#X msg 1240 445 open HE.wav;
#X msg 1207 462 1;
#X msg 1342 521 0;
#X obj 1415 370 % 4;
#X obj 1407 423 select 0 1 2 3;
#X msg 1411 520 0;
#X msg 1472 519 0;
#X msg 1535 520 0;
#X obj 1311 605 *~;
#X obj 1368 606 *~;
#X obj 1429 609 *~;
#X obj 1493 609 *~;
#X obj 1260 197 random 30000;
#X obj 1242 264 + 25000;
#X obj 1177 107 loadbang;
#X obj 243 1200 dac~ 1 2 3 4 5 6;
#X obj 404 742 dac~ 1 2 3 4 5 6;
#X obj 1356 472 t b b;
#X obj 1420 471 t b b;
#X obj 1482 472 t b b;
#X obj 1545 471 t b b;
#X msg 1375 522 0.5;
#X msg 1441 520 0.5;
#X msg 1504 520 0.5;
#X msg 1567 519 0.5;
#X obj 633 990 readsf~;
#X obj 694 1021 bng 15 250 50 0 empty empty empty 0 -6 0 8 -262144
-1 -1;
#X msg 724 1068 1;
#X obj 724 1035 t b b;
#X obj 827 992 readsf~;
#X obj 873 1022 bng 15 250 50 0 empty empty empty 0 -6 0 8 -262144
-1 -1;
#X msg 918 1070 1;
#X obj 918 1037 t b b;
#X obj 1014 1006 readsf~;
#X obj 1060 1036 bng 15 250 50 0 empty empty empty 0 -6 0 8 -262144
-1 -1;
#X msg 1105 1084 1;
#X obj 1105 1051 t b b;
#X obj 678 1117 *~ 0.3;
#X obj 840 1124 *~ 0.3;
#X obj 1049 1118 *~ 0.3;
#X obj 1528 801 loadbang;
#X obj 1384 1344 dac~ 1 2 3 4 5 6;
#X obj 1166 999 readsf~;
#X obj 1227 1030 bng 15 250 50 0 empty empty empty 0 -6 0 8 -262144
-1 -1;
#X msg 1257 1077 1;
#X obj 1257 1044 t b b;
#X obj 1360 1001 readsf~;
#X obj 1406 1031 bng 15 250 50 0 empty empty empty 0 -6 0 8 -262144
-1 -1;
#X msg 1451 1079 1;
#X obj 1451 1046 t b b;
#X obj 1547 1015 readsf~;
#X obj 1593 1045 bng 15 250 50 0 empty empty empty 0 -6 0 8 -262144
-1 -1;
#X msg 1638 1093 1;
#X obj 1638 1060 t b b;
#X obj 1206 1127 *~ 0.3;
#X obj 1373 1133 *~ 0.3;
#X obj 1757 1010 readsf~;
#X obj 1818 1041 bng 15 250 50 0 empty empty empty 0 -6 0 8 -262144
-1 -1;
#X msg 1848 1088 1;
#X obj 1848 1055 t b b;
#X obj 1927 1014 readsf~;
#X obj 1973 1044 bng 15 250 50 0 empty empty empty 0 -6 0 8 -262144
-1 -1;
#X msg 2018 1092 1;
#X obj 2018 1059 t b b;
#X obj 2114 1028 readsf~;
#X obj 2160 1058 bng 15 250 50 0 empty empty empty 0 -6 0 8 -262144
-1 -1;
#X msg 2205 1106 1;
#X obj 2205 1073 t b b;
#X obj 1797 1138 *~ 0.3;
#X obj 1940 1146 *~ 0.3;
#X obj 2149 1140 *~ 0.3;
#X msg 634 922 open exodePapi.wav;
#X msg 1014 930 open chinois.wav;
#X msg 1167 931 open bol.wav;
#X msg 1359 927 open flowers.wav;
#X msg 1548 947 open petain.wav;
#X msg 1758 942 open 3min.wav;
#X msg 791 415 open choux.wav;
#X msg -93 397 open tom.wav;
#X msg 228 403 open bellemare.wav;
#X msg 826 918 open 7730.wav;
#X text 760 1339 f;
#X obj 1582 1127 *~ 0.1;
#X msg 1926 940 open ampoule.wav;
#X msg 2115 960 open pData.wav;
#X connect 0 0 63 0;
#X connect 0 1 1 0;
#X connect 1 0 3 0;
#X connect 2 0 0 0;
#X connect 3 0 2 0;
#X connect 3 1 79 0;
#X connect 4 0 3 0;
#X connect 4 0 65 0;
#X connect 5 0 6 0;
#X connect 6 0 0 0;
#X connect 6 0 64 0;
#X connect 9 0 58 0;
#X connect 9 1 10 0;
#X connect 10 0 12 0;
#X connect 11 0 9 0;
#X connect 12 0 11 0;
#X connect 12 1 164 0;
#X connect 13 0 12 0;
#X connect 13 0 72 0;
#X connect 14 0 15 0;
#X connect 15 0 9 0;
#X connect 15 0 59 0;
#X connect 18 0 60 0;
#X connect 18 1 19 0;
#X connect 19 0 21 0;
#X connect 20 0 18 0;
#X connect 21 0 20 0;
#X connect 21 1 165 0;
#X connect 22 0 21 0;
#X connect 22 0 62 0;
#X connect 23 0 24 0;
#X connect 24 0 18 0;
#X connect 24 0 61 0;
#X connect 27 0 66 0;
#X connect 27 1 28 0;
#X connect 28 0 30 0;
#X connect 29 0 27 0;
#X connect 30 0 29 0;
#X connect 30 1 163 0;
#X connect 31 0 30 0;
#X connect 31 0 68 0;
#X connect 32 0 33 0;
#X connect 33 0 27 0;
#X connect 33 0 67 0;
#X connect 36 0 37 0;
#X connect 37 0 42 0;
#X connect 38 0 74 0;
#X connect 39 0 75 0;
#X connect 40 0 76 0;
#X connect 41 0 78 0;
#X connect 42 0 38 0;
#X connect 42 0 39 0;
#X connect 42 0 40 0;
#X connect 42 0 41 0;
#X connect 43 0 69 0;
#X connect 43 1 44 0;
#X connect 44 0 46 0;
#X connect 45 0 43 0;
#X connect 46 0 45 0;
#X connect 46 1 55 0;
#X connect 47 0 70 0;
#X connect 47 1 48 0;
#X connect 48 0 50 0;
#X connect 49 0 47 0;
#X connect 50 0 49 0;
#X connect 50 1 56 0;
#X connect 51 0 71 0;
#X connect 51 1 52 0;
#X connect 52 0 54 0;
#X connect 53 0 51 0;
#X connect 54 0 53 0;
#X connect 54 1 57 0;
#X connect 55 0 43 0;
#X connect 56 0 47 0;
#X connect 57 0 51 0;
#X connect 58 0 102 5;
#X connect 59 0 58 1;
#X connect 60 0 102 1;
#X connect 61 0 60 1;
#X connect 62 0 61 0;
#X connect 63 0 102 0;
#X connect 64 0 63 1;
#X connect 65 0 64 0;
#X connect 66 0 102 4;
#X connect 67 0 66 1;
#X connect 68 0 67 0;
#X connect 69 0 101 0;
#X connect 69 0 101 1;
#X connect 69 0 101 3;
#X connect 69 0 101 2;
#X connect 70 0 101 3;
#X connect 70 0 101 4;
#X connect 70 0 101 5;
#X connect 71 0 101 5;
#X connect 71 0 101 3;
#X connect 71 0 101 2;
#X connect 71 0 101 1;
#X connect 72 0 59 0;
#X connect 73 0 46 0;
#X connect 73 0 50 0;
#X connect 73 0 54 0;
#X connect 74 0 13 0;
#X connect 74 1 14 0;
#X connect 75 0 22 0;
#X connect 75 1 23 0;
#X connect 76 0 4 0;
#X connect 76 1 5 0;
#X connect 78 0 31 0;
#X connect 78 1 32 0;
#X connect 79 0 0 0;
#X connect 80 0 82 0;
#X connect 80 1 98 0;
#X connect 82 0 80 0;
#X connect 82 0 85 0;
#X connect 84 0 94 0;
#X connect 84 0 95 0;
#X connect 84 0 96 0;
#X connect 84 0 97 0;
#X connect 85 0 87 0;
#X connect 85 1 86 0;
#X connect 86 0 84 0;
#X connect 87 0 84 0;
#X connect 88 0 95 1;
#X connect 88 0 96 1;
#X connect 88 0 97 1;
#X connect 89 0 90 0;
#X connect 90 0 103 0;
#X connect 90 1 104 0;
#X connect 90 2 105 0;
#X connect 90 3 106 0;
#X connect 91 0 94 1;
#X connect 91 0 96 1;
#X connect 91 0 97 1;
#X connect 92 0 94 1;
#X connect 92 0 95 1;
#X connect 92 0 97 1;
#X connect 93 0 94 1;
#X connect 93 0 95 1;
#X connect 93 0 96 1;
#X connect 94 0 83 2;
#X connect 95 0 83 1;
#X connect 95 0 83 5;
#X connect 96 0 83 0;
#X connect 96 0 83 4;
#X connect 97 0 83 4;
#X connect 97 0 83 5;
#X connect 98 0 99 0;
#X connect 99 0 81 0;
#X connect 99 0 82 1;
#X connect 99 0 89 0;
#X connect 100 0 80 0;
#X connect 103 0 88 0;
#X connect 103 1 107 0;
#X connect 104 0 91 0;
#X connect 104 1 108 0;
#X connect 105 0 92 0;
#X connect 105 1 109 0;
#X connect 106 0 93 0;
#X connect 106 1 110 0;
#X connect 107 0 94 1;
#X connect 108 0 95 1;
#X connect 109 0 96 1;
#X connect 110 0 97 1;
#X connect 111 0 123 0;
#X connect 111 1 112 0;
#X connect 112 0 114 0;
#X connect 113 0 111 0;
#X connect 114 0 113 0;
#X connect 114 1 157 0;
#X connect 115 0 124 0;
#X connect 115 1 116 0;
#X connect 116 0 118 0;
#X connect 117 0 115 0;
#X connect 118 0 117 0;
#X connect 118 1 166 0;
#X connect 119 0 125 0;
#X connect 119 1 120 0;
#X connect 120 0 122 0;
#X connect 121 0 119 0;
#X connect 122 0 121 0;
#X connect 122 1 158 0;
#X connect 123 0 127 0;
#X connect 124 0 127 1;
#X connect 125 0 127 2;
#X connect 126 0 114 0;
#X connect 126 0 118 0;
#X connect 126 0 122 0;
#X connect 126 0 131 0;
#X connect 126 0 135 0;
#X connect 126 0 139 0;
#X connect 126 0 145 0;
#X connect 126 0 149 0;
#X connect 126 0 153 0;
#X connect 128 0 140 0;
#X connect 128 1 129 0;
#X connect 129 0 131 0;
#X connect 130 0 128 0;
#X connect 131 0 130 0;
#X connect 131 1 159 0;
#X connect 132 0 141 0;
#X connect 132 1 133 0;
#X connect 133 0 135 0;
#X connect 134 0 132 0;
#X connect 135 0 134 0;
#X connect 135 1 160 0;
#X connect 136 0 168 0;
#X connect 136 1 137 0;
#X connect 137 0 139 0;
#X connect 138 0 136 0;
#X connect 139 0 138 0;
#X connect 139 1 161 0;
#X connect 140 0 127 4;
#X connect 141 0 127 5;
#X connect 142 0 154 0;
#X connect 142 1 143 0;
#X connect 143 0 145 0;
#X connect 144 0 142 0;
#X connect 145 0 144 0;
#X connect 145 1 162 0;
#X connect 146 0 155 0;
#X connect 146 1 147 0;
#X connect 147 0 149 0;
#X connect 148 0 146 0;
#X connect 149 0 148 0;
#X connect 149 1 169 0;
#X connect 150 0 156 0;
#X connect 150 1 151 0;
#X connect 151 0 153 0;
#X connect 152 0 150 0;
#X connect 153 0 152 0;
#X connect 153 1 170 0;
#X connect 154 0 127 1;
#X connect 154 0 127 2;
#X connect 155 0 127 1;
#X connect 155 0 127 5;
#X connect 156 0 127 0;
#X connect 156 0 127 4;
#X connect 157 0 111 0;
#X connect 158 0 119 0;
#X connect 159 0 128 0;
#X connect 160 0 132 0;
#X connect 161 0 136 0;
#X connect 162 0 142 0;
#X connect 163 0 27 0;
#X connect 164 0 9 0;
#X connect 165 0 18 0;
#X connect 166 0 115 0;
#X connect 168 0 127 4;
#X connect 168 0 127 5;
#X connect 169 0 146 0;
#X connect 170 0 150 0;
